<?xml version="1.0" standalone="no"?><!DOCTYPE svg PUBLIC "-//W3C//DTD SVG 1.1//EN" "http://www.w3.org/Graphics/SVG/1.1/DTD/svg11.dtd"><svg t="1753682540398" class="icon" viewBox="0 0 1024 1024" version="1.1" xmlns="http://www.w3.org/2000/svg" p-id="1916" data-spm-anchor-id="a313x.search_index.0.i2.20843a81rBxp4R" xmlns:xlink="http://www.w3.org/1999/xlink" width="200" height="200"><path d="M119.2 530.752c-35.648-50.272-49.76-112.992-38.752-171.968 22.272-119.296 130.976-135.264 137.376-136.256 72.96-13.312 131.168 39.328 146.528 54.88l28.768 90.976-37.184 81.568a33.28 33.28 0 0 0 5.568 36.16l69.536 76.8-37.952 96.672c-2.624 6.56-3.008 13.76-1.216 20.576l21.184 80.448c-168.544-87.296-252.832-171.712-293.888-229.824z m306.336-73.088l33.44-73.28c3.424-7.52 3.936-16.032 1.44-23.808l-34.88-110.432a32.576 32.576 0 0 0-6.464-11.712c-3.648-4.256-90.432-103.744-211.36-81.6-55.648 6.912-167.584 55.36-192.704 189.76-14.272 76.544 3.904 157.696 49.824 222.656 50.784 71.776 158.784 179.296 385.024 283.712 0.448 0.192 0.928 0.096 1.344 0.32 4 1.632 8.192 2.816 12.608 2.816 2.816 0 5.696-0.352 8.512-1.12 2.496-0.672 4.512-2.112 6.656-3.264 1.184-0.608 2.304-0.928 3.424-1.696a32 32 0 0 0 10.848-12.352c0.192-0.416 0.672-0.576 0.832-0.928 0.672-1.44 0.608-2.976 1.088-4.416 0.672-2.208 1.344-4.352 1.6-6.656 0.16-2.4-0.16-4.672-0.448-7.008-0.16-1.44 0.16-2.88-0.256-4.352l-36.96-140.48 41.536-105.728a33.088 33.088 0 0 0-6.304-34.496l-68.704-75.872zM909.792 533.6c-43.36 59.296-133.888 145.984-315.552 233.376l0.672-92.256 67.68-91.072a33.28 33.28 0 0 0 2.976-34.976l-46.432-91.136 51.392-62.016c5.216-6.336 7.936-14.432 7.616-22.688l-4.192-101.024c19.808-18.368 74.816-61.44 144.288-47.52 1.12 0.16 112.544 17.152 133.12 138.048 9.984 59.072-5.12 121.504-41.568 171.264z m107.136-182.4c-22.88-134.72-133.952-185.024-187.456-192.416-122.304-25.088-210.272 73.056-213.952 77.248l-0.16 0.32c-3.52 3.904-5.696 8.8-7.008 14.016-0.352 1.216-0.416 2.368-0.576 3.584-0.32 2.048-1.088 3.904-0.96 5.984l4.256 102.912-57.184 69.024a33.28 33.28 0 0 0-4 36.352l47.008 92.224-61.888 83.296a33.6 33.6 0 0 0-6.56 19.616l-1.12 156.064c0 0.096 0.096 0.192 0.096 0.352 0 2.368 0.832 4.672 1.344 7.008 0.448 1.984 0.512 4.096 1.344 5.952 0.064 0.096 0 0.256 0.064 0.416 0.192 0.352 0.608 0.512 0.832 0.864a31.904 31.904 0 0 0 10.176 11.936 32.096 32.096 0 0 0 19.264 7.008h0.256c0.16 0 0.32-0.064 0.416-0.096 4.544-0.064 8.864-0.96 12.736-2.656 0.064-0.064 0.16-0.064 0.256-0.064 227.904-100.672 337.568-206.336 389.44-277.184 47.008-64.16 66.496-144.992 53.44-221.76z" fill="#d81e06" p-id="1917"></path></svg>